<?xml version="1.0" encoding="UTF-8" standalone="no"?>
<!-- Created with Inkscape (http://www.inkscape.org/) -->

<svg
   width="172.85539mm"
   height="71.457558mm"
   viewBox="0 0 172.85539 71.457558"
   version="1.1"
   id="svg1"
   xml:space="preserve"
   xmlns="http://www.w3.org/2000/svg"
   xmlns:svg="http://www.w3.org/2000/svg"><defs
     id="defs1" /><g
     id="layer1"
     transform="translate(-18.271064,-87.030089)"><g
       id="g10"
       transform="translate(-22.330879,260.70004)"><g
         id="g17"><g
           id="g16"
           transform="translate(1.5579686,-138.65918)"
           style="display:inline;fill:#f8f8f8;fill-opacity:1"><g
             id="g15"
             transform="matrix(0.69624566,0,0,0.69624566,15.79886,-41.759994)"
             style="fill:#f8f8f8;fill-opacity:1"><path
               id="path15"
               style="fill:#f8f8f8;fill-opacity:1"
               d="m 216.04681,9.7219532 c -6.06852,0.20361 -11.68326,5.0206038 -12.61023,11.0567828 -0.11339,0.685333 -0.18309,1.379246 -0.1886,2.074077 -1.10677,0 -2.21354,0 -3.32031,0 0,3.270833 0,6.541667 0,9.8125 1.10416,0 2.20833,0 3.3125,0 0,6.630859 0,13.261719 0,19.892578 3.27864,0 6.55729,0 9.83593,0 0,-6.630859 0,-13.261719 0,-19.892578 3.45183,0 6.90365,0 10.35547,0 0,6.630859 0,13.261719 0,19.892578 3.27865,0 6.55729,0 9.83594,0 0,-6.630859 0,-13.261719 0,-19.892578 2.7806,0 5.5612,0 8.3418,0 0,-3.270833 0,-6.541667 0,-9.8125 -2.78255,0 -5.56511,0 -8.34766,0 0.11379,-1.750729 1.60585,-3.334848 3.40807,-3.305311 1.81076,-0.0928 3.6265,0.01966 5.43959,-0.02867 0.67082,1.560279 2.03633,2.78672 3.63867,3.333984 -0.9987,0 -1.9974,0 -2.99609,0 0,9.901693 0,19.803385 0,29.705078 3.29557,0 6.59114,0 9.88671,0 0,-9.901693 0,-19.803385 0,-29.705078 -0.98242,0 -1.96484,0 -2.94726,0 2.96271,-0.955747 4.84828,-4.431978 3.86559,-7.421804 -0.87497,-3.137079 -4.54399,-5.137999 -7.64654,-4.079779 -0.89912,0.27902 -1.73221,0.7723 -2.41046,1.425413 0,-1.023443 0,-2.046883 0,-3.0703128 -2.78397,0.0494 -5.57839,-0.11393 -8.35547,0.10546 -5.71384,0.7003798 -10.74912,5.4128878 -11.54818,11.1601898 -0.0918,0.622614 -0.15345,1.251143 -0.15689,1.880833 -3.45638,0 -6.91276,0 -10.36915,0 0.11379,-1.750729 1.60585,-3.334848 3.40807,-3.305311 2.22092,-0.07889 4.44704,0.0083 6.67045,-0.02867 0.36564,-0.240875 0.0567,-1.156286 0.15977,-1.659766 0,-2.717578 0,-5.435156 0,-8.1527258 -2.42056,0.006 -4.84132,-0.0185 -7.26172,0.0156 z M 155.6347,13.815704 c -4.9707,0 -9.94141,0 -14.91211,0 0,12.914062 0,25.828125 0,38.742187 3.39453,0 6.78906,0 10.18359,0 0,-2.384766 0,-4.769531 0,-7.154297 3.57265,-0.08459 7.27944,0.398343 10.7168,-0.830078 5.35667,-1.819522 9.57527,-6.66872 10.47942,-12.274029 0.9486,-5.428514 -1.18288,-11.275387 -5.45222,-14.775347 -3.02693,-2.569305 -7.05492,-3.902777 -11.01548,-3.708436 z m -77.005861,0.06445 c -2.534836,0.01654 -5.018808,0.563862 -7.432431,1.301128 -5.39851,1.558538 -10.447417,4.355511 -14.520512,8.240304 -5.937425,5.442506 -10.410728,12.522549 -12.478257,20.328078 -1.964417,7.043704 -2.30811,14.477735 -1.359035,21.71245 0.464951,3.954522 0.993227,7.911196 0.681439,11.933361 -0.55752,8.160036 -3.820976,15.937124 -7.939628,22.858525 -0.761118,1.43324 -2.000763,2.67861 -2.166134,4.3634 -0.216943,0.62902 0.89037,0.54727 1.261217,0.86071 4.676328,1.82983 9.609641,3.01149 14.598419,3.56281 4.722053,0.36802 9.489701,0.35222 14.195898,-0.19629 6.080725,-0.95343 11.984825,-3.07776 17.290437,-6.19406 4.399888,-2.61608 8.193629,-6.125548 11.57181,-9.910437 1.288636,-1.407303 2.846682,-2.910376 4.886828,-2.912924 2.0744,-0.143542 4.13707,0.619171 5.68154,1.99829 2.45788,2.074695 4.08415,4.897344 5.41926,7.748432 1.03904,2.247049 1.82399,4.612559 2.9361,6.821849 0.62559,1.06033 2.46457,0.98321 2.81709,-0.26251 0.53128,-1.44722 0.18635,-3.02719 0.16924,-4.52655 -0.59412,-6.571433 -3.37864,-12.828387 -7.3679,-18.034524 -1.03766,-1.309255 -2.27133,-2.572526 -2.7278,-4.225245 3.6288,-0.382904 7.29054,-0.522347 10.87082,-1.279287 5.89166,-1.123437 11.69243,-2.812246 17.2071,-5.178611 1.71434,-0.79264 3.62065,-1.643504 4.61544,-3.335071 1.07221,-2.198921 0.6666,-4.745477 0.32128,-7.068967 -1.31494,-7.372774 -4.8594,-14.280294 -9.77374,-19.899726 -3.77729,-4.287472 -8.38184,-7.729127 -13.05446,-10.970601 -1.37453,-0.959702 -1.82998,-2.641951 -2.80475,-3.929715 -4.4813,-6.565898 -11.66761,-10.954188 -19.297485,-12.889252 -2.126511,-0.592392 -4.315311,-0.931106 -6.525614,-0.919473 -2.358412,-0.01182 -4.71793,-0.02269 -7.076172,0.0039 z m 189.021481,8.46289 c -2.60084,0.113849 -5.16403,0.998199 -7.27929,2.515625 -0.57878,-0.668618 -1.15754,-1.337252 -1.73633,-2.005859 -1.28581,0 -2.57162,0 -3.85742,0 0,9.901693 0,19.803385 0,29.705078 3.27864,0 6.55729,0 9.83593,0 0.0218,-5.782902 -0.0542,-11.570752 0.0504,-17.350517 0.3149,-2.304156 3.16624,-3.749439 5.20152,-2.596787 1.40809,0.72802 2.14355,2.37921 1.94143,3.923085 0,5.341407 0,10.682813 0,16.024219 3.2793,0 6.5586,0 9.83789,0 -0.0333,-6.045767 0.0786,-12.095481 -0.0684,-18.138672 -0.51346,-5.496729 -4.73636,-10.43979 -10.13006,-11.69688 -1.23703,-0.314569 -2.52134,-0.430936 -3.79572,-0.379292 z m -95.25781,1.269532 c 0.0392,5.734225 -0.0838,11.472529 0.0782,17.20406 0.3591,4.674177 3.27303,9.172962 7.64279,11.02526 3.60286,1.669443 8.01023,1.644333 11.46529,-0.390283 0.69775,-0.385773 1.36095,-0.832527 1.99342,-1.317553 0.58212,0.807878 1.16326,1.616462 1.74609,2.423828 1.31315,0 2.6263,0 3.93945,0 1e-5,-9.901693 0,-19.803385 0,-29.705078 -3.27864,0 -6.55729,0 -9.83593,0 -0.0224,5.625229 0.0614,11.255937 -0.0537,16.877677 -0.26709,1.997026 -2.19633,3.917759 -4.29496,3.447843 -1.89872,-0.31122 -3.04061,-2.351732 -2.85186,-4.171605 -0.0359,-5.384561 -0.0137,-10.769278 -0.0182,-16.153915 -3.27018,0 -6.54037,0 -9.81055,0 0,0.253255 0,0.50651 0,0.759766 z m -15.90039,0.386718 c 3.12278,-0.09272 5.90027,2.841774 5.63469,5.953289 -0.1459,2.742715 -2.5024,5.238563 -5.29866,5.279356 -1.97213,0.05812 -3.94787,-0.0181 -5.92197,0.01931 0,-3.750652 0,-7.501303 0,-11.251954 1.86198,0 3.72396,0 5.58594,-1e-6 z m 96.42969,32.730469 c -8.10473,0.239546 -16.00223,4.241017 -20.97433,10.648736 -5.15911,6.43322 -7.09053,15.248973 -5.25039,23.2708 2.058,9.245942 9.16735,17.188221 18.16621,20.176611 5.97438,2.06654 12.64363,1.99635 18.57317,-0.19722 8.52209,-3.08269 15.26922,-10.60759 17.38086,-19.425145 2.39267,-9.254594 -0.48957,-19.648109 -7.30627,-26.350192 -5.34534,-5.40102 -12.99983,-8.402965 -20.58925,-8.12359 z m -90.01172,0.621094 c -2.52061,0.06445 -5.05382,-0.105699 -7.56586,0.128898 -6.70263,0.817383 -12.58321,6.080817 -14.14508,12.649515 -1.42732,5.653592 0.37789,11.97686 4.59108,16.012921 3.36014,3.290728 8.12347,5.049662 12.81517,4.775849 3.29956,0.04139 6.61033,-0.100674 9.90234,0.09102 2.19357,0.470487 3.42387,3.241036 2.2797,5.178175 -0.73462,1.370533 -2.35949,2.022975 -3.86134,1.831591 -7.78919,0 -15.57838,0 -23.36757,0 0,4.404944 0,8.809894 0,13.214844 8.4622,-0.0204 16.9268,0.0516 25.38749,-0.0486 6.46375,-0.42895 12.4194,-4.99119 14.52266,-11.11941 2.22557,-6.070626 0.49305,-13.35077 -4.24804,-17.751952 -3.33263,-3.167154 -7.97937,-4.864256 -12.56875,-4.61224 -3.32059,-0.03449 -6.64929,0.08254 -9.96446,-0.07917 -2.13854,-0.399356 -3.36334,-2.981964 -2.46759,-4.927331 0.62617,-1.453754 2.2424,-2.324925 3.8008,-2.127356 8.10507,0 16.21015,0 24.31523,0 0,-4.404948 0,-8.809896 0,-13.214844 -6.47526,-10e-4 -12.95052,-0.0059 -19.42578,-0.002 z m 25.14453,0.761719 c 0,17.707031 0,35.414062 0,53.121094 12.63021,0 25.26042,0 37.89062,0 10e-6,-4.40495 0,-8.8099 0,-13.214844 -8.22591,0 -16.45182,0 -24.67773,0 0,-2.367188 0,-4.734375 0,-7.101563 5.56641,0 11.13281,0 16.69922,0 0,-4.404948 0,-8.809896 0,-13.214844 -5.56641,0 -11.13281,0 -16.69922,0 0,-2.378255 0,-4.75651 0,-7.134765 8.22591,0 16.45182,0 24.67773,0 10e-6,-4.404948 0,-8.809896 0,-13.214844 -12.6302,0 -25.26041,0 -37.89062,0 0,0.253255 0,0.50651 0,0.759766 z m 65.80469,11.746093 c 6.11339,-0.09289 11.95055,4.145959 13.86399,9.935072 1.73006,4.919273 0.52139,10.716908 -3.04873,14.523427 -1.69407,1.884247 -4.08638,3.414103 -6.60042,4.172361 -2.96955,0.946175 -6.38745,0.801982 -9.21484,-0.236328 -5.28111,-1.919522 -9.31915,-7.023165 -9.65455,-12.676078 -0.35448,-4.757574 1.75188,-9.630277 5.54861,-12.544068 2.56991,-2.029869 5.82085,-3.211788 9.10594,-3.174386 z" /></g></g><g
           id="g11"
           transform="translate(0.51932279,-15.060361)"
           style="display:inline"><path
             style="font-size:35.5016px;font-family:Righteous;-inkscape-font-specification:Righteous;stroke-width:2.14198;stroke-linecap:round;stroke-linejoin:round;stroke-miterlimit:4.9"
             d="m 120.78405,-149.7136 v 9.95015 h 4.97508 q 1.02275,0 1.92416,-0.38136 0.9014,-0.3987 1.57746,-1.07476 0.67606,-0.67605 1.05742,-1.57746 0.3987,-0.91874 0.3987,-1.9415 0,-1.02275 -0.3987,-1.92415 -0.38136,-0.91875 -1.05742,-1.5948 -0.67606,-0.67606 -1.57746,-1.05742 -0.90141,-0.3987 -1.92416,-0.3987 z m 0,19.88297 h -4.97508 v -24.85805 h 9.95016 q 1.36944,0 2.63488,0.36403 1.26544,0.3467 2.35753,1.00542 1.10942,0.64138 2.01083,1.56013 0.91874,0.9014 1.56013,2.01083 0.65872,1.10942 1.00542,2.37486 0.36403,1.26544 0.36403,2.63488 0,2.04551 -0.78007,3.86566 -0.78006,1.80281 -2.13217,3.15492 -1.35211,1.35212 -3.17226,2.13218 -1.80282,0.78007 -3.84832,0.78007 h -4.97508 z m 30.95989,-2.16684 q -0.57205,0.52004 -1.23077,0.98808 -0.64139,0.4507 -1.35211,0.7974 -0.71073,0.32936 -1.47346,0.52004 -0.74539,0.20802 -1.52545,0.20802 -1.71615,0 -3.22427,-0.60672 -1.50813,-0.60672 -2.65222,-1.71614 -1.12676,-1.12676 -1.78548,-2.72156 -0.64139,-1.61213 -0.64139,-3.60563 v -10.26218 h 4.71506 v 10.26218 q 0,0.93608 0.27736,1.68147 0.29469,0.72806 0.78006,1.23077 0.48537,0.50271 1.12676,0.76273 0.65872,0.26002 1.40412,0.26002 0.72806,0 1.36944,-0.32936 0.65872,-0.34669 1.1441,-0.90141 0.48537,-0.55471 0.76273,-1.2481 0.27735,-0.71072 0.27735,-1.45612 v -10.26218 h 4.73239 v 18.56553 h -1.14409 z m 12.32502,2.16684 h -4.7324 v -13.85047 h -2.30552 v -4.71506 h 2.30552 v -0.88407 q 0,-1.71615 0.64139,-3.22427 0.65872,-1.50812 1.78548,-2.61755 1.1441,-1.12676 2.65222,-1.76815 1.50813,-0.65872 3.22427,-0.65872 h 3.55362 v 4.71506 h -3.55362 q -0.76273,0 -1.42145,0.27736 -0.64139,0.26002 -1.12676,0.74539 -0.46804,0.46804 -0.7454,1.12676 -0.27735,0.64139 -0.27735,1.40412 v 0.88407 h 5.80714 v 4.71506 h -5.80714 z m 14.05849,0 h -4.73239 v -13.85047 h -2.30552 v -4.71506 h 2.30552 v -0.88407 q 0,-1.71615 0.64139,-3.22427 0.65872,-1.50812 1.78548,-2.61755 1.14409,-1.12676 2.65222,-1.76815 1.50812,-0.65872 3.22426,-0.65872 h 3.55363 v 4.71506 h -3.55363 q -0.76273,0 -1.42145,0.27736 -0.64139,0.26002 -1.12676,0.74539 -0.46804,0.46804 -0.74539,1.12676 -0.27736,0.64139 -0.27736,1.40412 v 0.88407 h 5.80715 v 4.71506 h -5.80715 z m 14.30118,-23.60995 q 0,0.65872 -0.26002,1.23077 -0.24269,0.57205 -0.67606,1.00542 -0.43336,0.41603 -1.02275,0.67605 -0.57204,0.24269 -1.23077,0.24269 -0.65872,0 -1.2481,-0.24269 -0.57205,-0.26002 -1.00541,-0.67605 -0.41604,-0.43337 -0.67606,-1.00542 -0.24269,-0.57205 -0.24269,-1.23077 0,-0.64138 0.24269,-1.21343 0.26002,-0.58938 0.67606,-1.00542 0.43336,-0.43337 1.00541,-0.67605 0.58938,-0.26002 1.2481,-0.26002 0.65873,0 1.23077,0.26002 0.58939,0.24268 1.02275,0.67605 0.43337,0.41604 0.67606,1.00542 0.26002,0.57205 0.26002,1.21343 z m -0.81473,23.60995 h -4.76706 v -18.56553 h 4.76706 z m 8.33802,0 h -4.73239 v -18.56553 h 1.1441 l 1.56013,1.80281 q 1.14409,-1.04008 2.58288,-1.59479 1.45612,-0.57205 3.03358,-0.57205 1.69881,0 3.20693,0.65872 1.50813,0.64139 2.63489,1.78548 1.12676,1.12676 1.76814,2.65222 0.65872,1.50812 0.65872,3.22427 v 10.60887 h -4.73239 v -10.60887 q 0,-0.72806 -0.27735,-1.36945 -0.27736,-0.65872 -0.76273,-1.14409 -0.48538,-0.48538 -1.12676,-0.76273 -0.64139,-0.27736 -1.36945,-0.27736 -0.74539,0 -1.40412,0.27736 -0.65872,0.27735 -1.14409,0.76273 -0.48537,0.48537 -0.76273,1.14409 -0.27736,0.64139 -0.27736,1.36945 z"
             id="text5"
             aria-label="Puffin" /><path
             d="m 115.80898,-113.7617 q 0,-2.19697 0.83929,-4.1224 0.83929,-1.92543 2.27103,-3.35716 1.45641,-1.45642 3.38184,-2.29571 1.92543,-0.83929 4.1224,-0.83929 h 16.24274 v 7.0846 h -16.24274 q -0.74055,0 -1.38236,0.27154 -0.64181,0.27153 -1.13551,0.76523 -0.46902,0.46902 -0.74055,1.11083 -0.27154,0.64181 -0.27154,1.38236 0,0.74055 0.27154,1.40704 0.27153,0.64181 0.74055,1.13551 0.4937,0.46902 1.13551,0.74055 0.64181,0.27154 1.38236,0.27154 h 7.0846 q 2.19696,0 4.12239,0.83929 1.95012,0.81461 3.38185,2.27102 1.45642,1.43173 2.27102,3.38185 0.83929,1.92543 0.83929,4.122395 0,2.196965 -0.83929,4.122396 -0.8146,1.925431 -2.27102,3.381847 -1.43173,1.43173 -3.38185,2.271021 -1.92543,0.83929 -4.12239,0.83929 h -15.72436 v -7.084598 h 15.72436 q 0.74055,0 1.38236,-0.271535 0.64181,-0.271535 1.11082,-0.74055 0.4937,-0.493701 0.76524,-1.135511 0.27153,-0.64181 0.27153,-1.38236 0,-0.740555 -0.27153,-1.382365 -0.27154,-0.64181 -0.76524,-1.11082 -0.46901,-0.4937 -1.11082,-0.76524 -0.64181,-0.27153 -1.38236,-0.27153 h -7.0846 q -2.19697,0 -4.1224,-0.83929 -1.92543,-0.83929 -3.38184,-2.27102 -1.43174,-1.45642 -2.27103,-3.38185 -0.83929,-1.95012 -0.83929,-4.14708 z m 57.21986,24.783749 h -24.26537 v -35.398309 h 24.26537 v 7.0846 h -17.18077 v 7.0846 h 11.62664 v 7.0846 h -11.62664 v 7.059911 h 17.18077 z m 38.78015,-17.551039 q 0,2.51787 -0.6665,4.86294 -0.64181,2.320395 -1.82669,4.36925 -1.18488,2.024171 -2.86346,3.702752 -1.67858,1.678581 -3.70275,2.888146 -2.02417,1.184881 -4.36925,1.826691 -2.34507,0.666495 -4.86295,0.666495 -2.51787,0 -4.86294,-0.666495 -2.32039,-0.64181 -4.36925,-1.826691 -2.02417,-1.209565 -3.70275,-2.888146 -1.67858,-1.678581 -2.88815,-3.702752 -1.18488,-2.048855 -1.85137,-4.36925 -0.64181,-2.34507 -0.64181,-4.86294 0,-2.51787 0.64181,-4.86295 0.66649,-2.34508 1.85137,-4.36925 1.20957,-2.02417 2.88815,-3.70275 1.67858,-1.67858 3.70275,-2.86346 2.04886,-1.18488 4.36925,-1.82669 2.34507,-0.6665 4.86294,-0.6665 2.51788,0 4.86295,0.6665 2.34508,0.64181 4.36925,1.82669 2.02417,1.18488 3.70275,2.86346 1.67858,1.67858 2.86346,3.70275 1.18488,2.02417 1.82669,4.36925 0.6665,2.34508 0.6665,4.86295 z m -7.03523,0 q 0,-2.32039 -0.88866,-4.36925 -0.88866,-2.07354 -2.41913,-3.57933 -1.50579,-1.53047 -3.57933,-2.41913 -2.04885,-0.88866 -4.36925,-0.88866 -2.34507,0 -4.39393,0.88866 -2.04885,0.88866 -3.57932,2.41913 -1.53047,1.50579 -2.41914,3.57933 -0.88866,2.04886 -0.88866,4.36925 0,2.32039 0.88866,4.36924 0.88867,2.02417 2.41914,3.554645 1.53047,1.530471 3.57932,2.419131 2.04886,0.88866 4.39393,0.88866 2.3204,0 4.36925,-0.88866 2.07354,-0.88866 3.57933,-2.419131 1.53047,-1.530475 2.41913,-3.554645 0.88866,-2.04885 0.88866,-4.36924 z"
             id="text6"
             style="font-size:50.5549px;font-family:Righteous;-inkscape-font-specification:Righteous;fill:#f37a13;stroke-width:3.05021;stroke-linecap:round;stroke-linejoin:round;stroke-miterlimit:4.9"
             aria-label="SEO" /><g
             id="g8"
             transform="matrix(0.69624566,0,0,0.69624566,16.318183,-79.151235)"><path
               id="path6"
               style="fill:#ffffff;stroke-width:3.06501;stroke-linecap:round;stroke-linejoin:round;stroke-miterlimit:4.9"
               d="M 108.4589,-74.972298 A 29.697384,29.287415 0 0 1 78.761513,-45.684883 29.697384,29.287415 0 0 1 49.064129,-74.972298 29.697384,29.287415 0 0 1 78.761513,-104.25971 29.697384,29.287415 0 0 1 108.4589,-74.972298 Z" /><path
               id="path7"
               style="fill:#f37a13;fill-opacity:1;stroke-width:3.10758;stroke-linecap:round;stroke-linejoin:round;stroke-miterlimit:4.9"
               d="m 109.54877,-89.854137 12.70208,6.86565 10.73016,14.74034 1.7755,13.04204 -15.69358,5.48087 -16.31114,0.84915 5.25118,-14.31339 z" /><path
               style="fill:#000000"
               d="m 48.271463,-16.493293 c -3.652984,-0.57338 -7.729151,-1.5673 -10.507162,-2.56203 -1.060539,-0.37976 -1.964233,-0.72238 -2.008208,-0.76139 -0.04397,-0.039 0.567106,-1.06683 1.357957,-2.28403 1.827027,-2.812 4.328559,-7.81543 5.574644,-11.15011 3.031962,-8.11392 3.725375,-14.41328 2.554867,-23.20987 -0.752454,-5.65484 -0.932875,-10.09294 -0.569869,-14.01801 1.023281,-11.06439 4.782369,-19.67314 11.748653,-26.90578 5.313087,-5.516237 10.375322,-8.454797 17.792666,-10.328417 2.737575,-0.69151 3.221764,-0.73154 8.849159,-0.73154 5.576553,0 6.129595,0.0447 8.742913,0.70594 3.454678,0.87417 5.728278,1.72114 8.522177,3.17468 5.11231,2.65972 9.68906,7.066507 11.91285,11.470447 0.57508,1.13888 1.11481,1.64044 3.67361,3.41376 8.76902,6.07721 13.84695,11.69649 17.41516,19.27179 2.87067,6.09442 4.13684,13.16408 2.78224,15.53463 -0.71982,1.25969 -4.18925,2.97022 -9.59955,4.73287 -7.03797,2.29293 -13.10381,3.52565 -19.10774,3.88314 -1.67348,0.0996 -3.24139,0.2844 -3.48422,0.41059 -1.26147,0.65548 -0.65324,2.85312 1.49266,5.39319 3.89622,4.61189 6.61588,10.27607 7.66819,15.97037 0.45146,2.44291 0.55661,6.50951 0.16203,6.26564 -0.13572,-0.0839 -0.73948,-1.43036 -1.34169,-2.99217 -2.17826,-5.64929 -4.31258,-9.21395 -6.92091,-11.55906 -2.08389,-1.8736 -3.67551,-2.58907 -6.080558,-2.73337 -2.913708,-0.17482 -4.434542,0.56642 -7.093393,3.45724 -3.071623,3.3396 -5.228506,5.3682 -7.65977,7.20421 -5.248944,3.96383 -12.057715,6.86112 -19.340248,8.22974 -3.598305,0.67623 -12.570698,0.74 -16.536458,0.11754 z m 42.20104,-32.34149 c 4.123131,-0.97507 8.079285,-4.16187 9.915277,-7.98704 0.83866,-1.74729 1.02836,-2.46836 1.18333,-4.49791 0.20017,-2.62135 0.28185,-2.83545 2.13351,-5.59203 2.61526,-3.89336 3.42837,-6.11927 3.6259,-9.92596 0.11943,-2.30154 0.0467,-3.1684 -0.42093,-5.01766 -1.70669,-6.74903 -6.44721,-12.39959 -13.093294,-15.60683 -3.264495,-1.57537 -5.746374,-2.27139 -9.515705,-2.668587 -5.191617,-0.54709 -9.851278,0.326527 -14.862462,2.786487 -7.760249,3.80946 -14.564673,11.50679 -16.160263,18.28088 -1.27949,5.43209 1.342772,12.40548 6.873754,18.27939 7.329145,7.78356 18.493988,12.86246 27.145883,12.34867 1.091406,-0.0648 2.520156,-0.24454 3.175,-0.39941 z m -5.690468,-25.18139 c -1.417693,-0.66019 -2.812874,-2.057 -3.50564,-3.50975 l -0.4269,-0.89521 -3.192142,-0.005 c -3.451486,-0.006 -5.236482,-0.20724 -9.939016,-1.1224 l -3.042708,-0.59215 3.042708,-0.16342 c 3.710168,-0.19927 5.767891,-0.5702 8.47245,-1.52727 2.107831,-0.7459 5.018468,-2.32993 5.158249,-2.80722 1.047689,-3.57744 1.543774,-4.37197 3.243496,-5.19479 3.230571,-1.56389 7.51797,0.87289 8.791734,4.99686 1.416712,4.58677 -0.05911,9.47408 -3.306369,10.94928 -1.508993,0.68552 -3.659661,0.63326 -5.295862,-0.12868 z m 6.160763,-8.78559 c 0.859358,-0.60192 0.778252,-1.81987 -0.18536,-2.78348 -0.909544,-0.90954 -1.414047,-0.9672 -2.137019,-0.24423 -0.912221,0.91222 -0.567523,2.69767 0.612609,3.17316 0.830319,0.33454 1.051329,0.31574 1.70977,-0.14545 z m 21.393792,32.42701 c 4.86301,-0.48754 9.42289,-1.66479 15.93646,-4.11439 l 1.9495,-0.73316 -10.68075,-3.10039 -10.68076,-3.1004 -0.8296,2.41504 c -1.09604,3.19068 -1.64016,4.39801 -3.07206,6.81656 l -1.1961,2.02028 2.84943,0.0423 c 1.56719,0.0233 4.14294,-0.0874 5.72388,-0.24586 z m 20.73784,-10.28197 c -1.16617,-7.27958 -5.3342,-14.70773 -11.67853,-20.81316 -4.29912,-4.13725 -7.72957,-6.44579 -9.0761,-6.10783 -1.24901,0.31348 -1.33083,0.81704 -1.50935,9.28887 -0.11181,5.30608 -0.30921,8.80728 -0.59544,10.56115 -0.2355,1.44301 -0.37946,2.67238 -0.31991,2.73193 0.32026,0.32026 23.3232,6.81328 23.4054,6.60662 0.0538,-0.13523 -0.0479,-1.15564 -0.22607,-2.26758 z"
               id="path8" /></g></g></g></g></g></svg>
