<?xml version="1.0" encoding="UTF-8" standalone="no"?>
<!-- Created with Inkscape (http://www.inkscape.org/) -->

<svg
   width="170.59734mm"
   height="69.336205mm"
   viewBox="0 0 170.59734 69.336205"
   version="1.1"
   id="svg1"
   xml:space="preserve"
   xmlns="http://www.w3.org/2000/svg"
   xmlns:svg="http://www.w3.org/2000/svg"><defs
     id="defs1" /><g
     id="layer1"
     transform="translate(-18.880773,-103.15114)"><g
       id="g10"
       transform="translate(-22.330879,260.70004)"><g
         id="g9"><text
           xml:space="preserve"
           style="font-style:normal;font-variant:normal;font-weight:normal;font-stretch:normal;font-size:35.5016px;font-family:Righteous;-inkscape-font-specification:Righteous;text-align:start;writing-mode:lr-tb;direction:ltr;text-anchor:start;fill:#000000;fill-opacity:1;stroke-width:2.14199;stroke-linecap:round;stroke-linejoin:round;stroke-miterlimit:4.9"
           x="113.50345"
           y="-129.83063"
           id="text5"><tspan
             id="tspan5"
             style="font-style:normal;font-variant:normal;font-weight:normal;font-stretch:normal;font-family:Righteous;-inkscape-font-specification:Righteous;fill:#000000;fill-opacity:1;stroke-width:2.14198"
             x="113.50345"
             y="-129.83063">Puffin</tspan></text><text
           xml:space="preserve"
           style="font-style:normal;font-variant:normal;font-weight:normal;font-stretch:normal;font-size:50.5549px;font-family:Righteous;-inkscape-font-specification:Righteous;text-align:start;writing-mode:lr-tb;direction:ltr;text-anchor:start;fill:#f37a13;fill-opacity:1;stroke-width:3.05021;stroke-linecap:round;stroke-linejoin:round;stroke-miterlimit:4.9"
           x="114.59942"
           y="-88.977951"
           id="text6"><tspan
             id="tspan6"
             style="stroke-width:3.05021"
             x="114.59942"
             y="-88.977951">SEO</tspan></text></g><g
         id="g8"
         transform="matrix(0.69624566,0,0,0.69624566,16.318183,-79.151235)"><path
           id="path6"
           style="fill:#ffffff;stroke-width:3.06501;stroke-linecap:round;stroke-linejoin:round;stroke-miterlimit:4.9"
           d="M 108.4589,-74.972298 A 29.697384,29.287415 0 0 1 78.761513,-45.684883 29.697384,29.287415 0 0 1 49.064129,-74.972298 29.697384,29.287415 0 0 1 78.761513,-104.25971 29.697384,29.287415 0 0 1 108.4589,-74.972298 Z" /><path
           id="path7"
           style="fill:#f37a13;fill-opacity:1;stroke-width:3.10758;stroke-linecap:round;stroke-linejoin:round;stroke-miterlimit:4.9"
           d="m 109.54877,-89.854137 12.70208,6.86565 10.73016,14.74034 1.7755,13.04204 -15.69358,5.48087 -16.31114,0.84915 5.25118,-14.31339 z" /><path
           style="fill:#000000"
           d="m 48.271463,-16.493293 c -3.652984,-0.57338 -7.729151,-1.5673 -10.507162,-2.56203 -1.060539,-0.37976 -1.964233,-0.72238 -2.008208,-0.76139 -0.04397,-0.039 0.567106,-1.06683 1.357957,-2.28403 1.827027,-2.812 4.328559,-7.81543 5.574644,-11.15011 3.031962,-8.11392 3.725375,-14.41328 2.554867,-23.20987 -0.752454,-5.65484 -0.932875,-10.09294 -0.569869,-14.01801 1.023281,-11.06439 4.782369,-19.67314 11.748653,-26.90578 5.313087,-5.516237 10.375322,-8.454797 17.792666,-10.328417 2.737575,-0.69151 3.221764,-0.73154 8.849159,-0.73154 5.576553,0 6.129595,0.0447 8.742913,0.70594 3.454678,0.87417 5.728278,1.72114 8.522177,3.17468 5.11231,2.65972 9.68906,7.066507 11.91285,11.470447 0.57508,1.13888 1.11481,1.64044 3.67361,3.41376 8.76902,6.07721 13.84695,11.69649 17.41516,19.27179 2.87067,6.09442 4.13684,13.16408 2.78224,15.53463 -0.71982,1.25969 -4.18925,2.97022 -9.59955,4.73287 -7.03797,2.29293 -13.10381,3.52565 -19.10774,3.88314 -1.67348,0.0996 -3.24139,0.2844 -3.48422,0.41059 -1.26147,0.65548 -0.65324,2.85312 1.49266,5.39319 3.89622,4.61189 6.61588,10.27607 7.66819,15.97037 0.45146,2.44291 0.55661,6.50951 0.16203,6.26564 -0.13572,-0.0839 -0.73948,-1.43036 -1.34169,-2.99217 -2.17826,-5.64929 -4.31258,-9.21395 -6.92091,-11.55906 -2.08389,-1.8736 -3.67551,-2.58907 -6.080558,-2.73337 -2.913708,-0.17482 -4.434542,0.56642 -7.093393,3.45724 -3.071623,3.3396 -5.228506,5.3682 -7.65977,7.20421 -5.248944,3.96383 -12.057715,6.86112 -19.340248,8.22974 -3.598305,0.67623 -12.570698,0.74 -16.536458,0.11754 z m 42.20104,-32.34149 c 4.123131,-0.97507 8.079285,-4.16187 9.915277,-7.98704 0.83866,-1.74729 1.02836,-2.46836 1.18333,-4.49791 0.20017,-2.62135 0.28185,-2.83545 2.13351,-5.59203 2.61526,-3.89336 3.42837,-6.11927 3.6259,-9.92596 0.11943,-2.30154 0.0467,-3.1684 -0.42093,-5.01766 -1.70669,-6.74903 -6.44721,-12.39959 -13.093294,-15.60683 -3.264495,-1.57537 -5.746374,-2.27139 -9.515705,-2.668587 -5.191617,-0.54709 -9.851278,0.326527 -14.862462,2.786487 -7.760249,3.80946 -14.564673,11.50679 -16.160263,18.28088 -1.27949,5.43209 1.342772,12.40548 6.873754,18.27939 7.329145,7.78356 18.493988,12.86246 27.145883,12.34867 1.091406,-0.0648 2.520156,-0.24454 3.175,-0.39941 z m -5.690468,-25.18139 c -1.417693,-0.66019 -2.812874,-2.057 -3.50564,-3.50975 l -0.4269,-0.89521 -3.192142,-0.005 c -3.451486,-0.006 -5.236482,-0.20724 -9.939016,-1.1224 l -3.042708,-0.59215 3.042708,-0.16342 c 3.710168,-0.19927 5.767891,-0.5702 8.47245,-1.52727 2.107831,-0.7459 5.018468,-2.32993 5.158249,-2.80722 1.047689,-3.57744 1.543774,-4.37197 3.243496,-5.19479 3.230571,-1.56389 7.51797,0.87289 8.791734,4.99686 1.416712,4.58677 -0.05911,9.47408 -3.306369,10.94928 -1.508993,0.68552 -3.659661,0.63326 -5.295862,-0.12868 z m 6.160763,-8.78559 c 0.859358,-0.60192 0.778252,-1.81987 -0.18536,-2.78348 -0.909544,-0.90954 -1.414047,-0.9672 -2.137019,-0.24423 -0.912221,0.91222 -0.567523,2.69767 0.612609,3.17316 0.830319,0.33454 1.051329,0.31574 1.70977,-0.14545 z m 21.393792,32.42701 c 4.86301,-0.48754 9.42289,-1.66479 15.93646,-4.11439 l 1.9495,-0.73316 -10.68075,-3.10039 -10.68076,-3.1004 -0.8296,2.41504 c -1.09604,3.19068 -1.64016,4.39801 -3.07206,6.81656 l -1.1961,2.02028 2.84943,0.0423 c 1.56719,0.0233 4.14294,-0.0874 5.72388,-0.24586 z m 20.73784,-10.28197 c -1.16617,-7.27958 -5.3342,-14.70773 -11.67853,-20.81316 -4.29912,-4.13725 -7.72957,-6.44579 -9.0761,-6.10783 -1.24901,0.31348 -1.33083,0.81704 -1.50935,9.28887 -0.11181,5.30608 -0.30921,8.80728 -0.59544,10.56115 -0.2355,1.44301 -0.37946,2.67238 -0.31991,2.73193 0.32026,0.32026 23.3232,6.81328 23.4054,6.60662 0.0538,-0.13523 -0.0479,-1.15564 -0.22607,-2.26758 z"
           id="path8" /></g></g></g></svg>
